<?xml version="1.0" encoding="utf-8"?>
<!-- Generator: Adobe Illustrator 18.1.1, SVG Export Plug-In . SVG Version: 6.00 Build 0)  -->
<!DOCTYPE svg PUBLIC "-//W3C//DTD SVG 1.1//EN" "http://www.w3.org/Graphics/SVG/1.1/DTD/svg11.dtd">
<svg version="1.1" id="Layer_1" xmlns="http://www.w3.org/2000/svg" xmlns:xlink="http://www.w3.org/1999/xlink" x="0px" y="0px"
	 viewBox="0 0 500 300" enable-background="new 0 0 500 300" xml:space="preserve">
<g>
	<path fill="#3A19DD" stroke="#0400A8" stroke-miterlimit="10" d="M232.2,137.4c0-4.2,0.3-8-0.1-11.8c-1.2-10.9-3.2-21.5-9.3-31
		c-3.6-5.5-8-10.2-13.7-13.6c-1.6-0.9-1.6-1.8,0-2.5c2.6-1.2,5.3-2.3,8-3.3c8.3-3,16.9-4.8,25.8-4.6c5.1,0.1,10.2,1,15.1,2.4
		c5.4,1.6,7.5,4.8,8.1,11.4c0.8,8.6-0.6,16.9-2.6,25.1c-1.6,6.3-3.6,12.5-5.4,18.8c-0.3,1-0.8,1.4-1.8,1.5c-2.1,0.2-4.1,0.4-6.2,0.5
		c-4.3,0.2-8.1,1.9-11.7,4.2c-1.1,0.7-2.2,1.4-3.4,1.9C234.2,137.1,233.3,137.2,232.2,137.4z"/>
	<path fill="#E80000" stroke="#BC0000" stroke-miterlimit="10" d="M229.1,130.9c-0.2,1.6-0.6,4.6-1.1,7.6c-0.1,0.5-0.3,1-0.6,1.3
		c-5.1,3.9-10.7,6.2-17.2,4.6c-5.4-1.3-8.9-5.1-12-9.5c-2.2-3.2-3.3-6.8-4.1-10.5c-1.3-6.3-4.7-11.1-9.7-14.9c-2.6-2-2.8-3-0.8-5.7
		c4.5-5.9,9.2-11.7,13.8-17.5c1.6-2,3.8-1.9,6.1-1.4c9,1.8,14.5,7.8,18.3,15.7C226.2,109.6,228.9,119.2,229.1,130.9z"/>
	<path fill="#FFFFFF" d="M231.6,196c1.1-4.3,2.5-8.3,5.9-11.3c4.1-3.6,9.1-4.8,14.4-4.6c2.1,0.1,4.3,0.3,6.3,0.9
		c4.5,1.4,7.2,4.9,8.1,9.3c0.9,4.4,1.1,8.9,1.3,13.4c0.2,5.7,0.1,11.4,0,17.2c0,1.5-0.2,2.9-0.6,4.3c-0.5,2-1.9,2.8-4,2.8
		c-2.1,0-3.4-0.7-3.9-2.7c-0.5-2.2-0.8-4.6-0.9-6.9c-0.1-5.5,0.1-11,0-16.6c0-2.2-0.3-4.4-0.9-6.4c-1.7-6.9-9.5-9-14.6-4
		c-2.8,2.7-3.9,6.2-4.7,9.8c-1.3,6.1-1.4,12.3-1.6,18.4c0,1.8-0.2,3.5-0.7,5.2c-0.6,2.4-2,3.3-4.4,3.3c-2.2-0.1-3.5-1-3.9-3.5
		c-0.5-2.8-0.5-5.6-0.7-8.5c-0.4-6.2-0.5-12.5-2.4-18.5c-0.5-1.6-1.2-3.1-2.1-4.5c-2.4-3.7-6.2-5.3-10.5-4.3
		c-3.3,0.8-4.8,3.2-5.6,6.2c-1.3,4.7-0.9,9.4-1,14.2c0,4.6-0.1,9.2-0.2,13.8c0,0.6-0.2,1.2-0.4,1.8c-0.6,2.2-1.8,3-4,3
		c-2.2,0-3.5-0.8-4-3c-0.4-1.8-0.7-3.7-0.7-5.5c0.1-8.3,0-16.6,0.5-24.9c0.3-5.6,2.6-10.3,7.8-13.1c8.1-4.2,19.9-1.4,24.4,6
		c1.3,2.2,1.8,4.9,2.7,7.3C231.4,195.2,231.5,195.6,231.6,196z"/>
	<path fill="#FFFFFF" d="M360.2,184.1c0-6.1,0-11.9,0-17.7c0-2,0.2-3.9,0.5-5.9c0.4-2.4,1.7-3.3,4.4-3.2c2.4,0.1,3.6,1.1,3.8,3.5
		c0.3,2.3,0.4,4.6,0.4,7c0.1,7.6,0.1,15.2,0.1,22.8c0,7.8-0.2,15.6-0.2,23.4c0,1,0.4,2,0.9,2.8c0.4,0.9,1.1,1.6,1.6,2.4
		c2.7,4,0.9,8.1-4,8.7c-2.4,0.3-4-0.8-5.2-3.3c-0.2-0.5-0.4-0.9-0.6-1.5c-3.3,2.9-6.9,4.9-11.1,5.5c-11.9,1.9-24.6-4.8-25.9-19.8
		c-0.5-5.7,0-11.3,2.8-16.4c4.1-7.5,10.7-10.9,18.9-11.5C351.1,180.5,355.1,180.7,360.2,184.1z M360.8,205.5
		c-0.2-2.1-0.2-3.8-0.5-5.4c-0.6-3.7-1.9-7.1-5.4-9.1c-4.9-2.9-15.2-1.9-19.1,5.3c-1.7,3.1-2,6.4-1.7,9.8c0.8,8.9,8,14.7,16.8,13.4
		c4.6-0.7,7.7-3.2,8.8-7.8C360.4,209.5,360.6,207.3,360.8,205.5z"/>
	<path fill="#FFFFFF" d="M311,220.8c-2.1,1.8-3.9,4.1-6.3,5.4c-8,4.2-16.1,4.5-23.8-0.7c-3.6-2.5-5.9-6.1-7.2-10.3
		c-2.1-6.8-2.6-13.6-0.6-20.5c3.3-11.4,15.9-17.7,26.9-13.3c1.1,0.4,2.1,1.1,3.1,1.7c1,0.6,1.9,1.3,2.9,1.9c0-0.7,0-1.6,0-2.6
		c0.1-2.3,1.3-3.6,3.6-4c2-0.3,3.7,0.6,4.2,2.8c0.9,3.6,1.7,7.3,2.2,11c1.2,8.9,2.2,17.8,3.2,26.7c0.1,1.2,0.1,2.4-0.1,3.6
		c-0.2,2.1-0.9,2.8-2.5,3.1c-2.2,0.4-3.7-0.2-4.5-1.9C311.6,222.8,311.3,221.7,311,220.8z M281.1,206.1c0.7,2.5,1.2,4.7,2,6.8
		c2.1,5.4,6.5,8.1,12.4,7.8c6.2-0.3,10.7-3.6,12.2-9.1c1-3.5,0.8-7.1,0.1-10.7c-2-9.7-9.7-13.5-18.4-11.2c-4.2,1.1-6.8,4-7.7,8.2
		C281.2,200.7,281.3,203.6,281.1,206.1z"/>
	<path fill="#FFFFFF" d="M75.2,185.2c4.5-2.9,9.2-4.3,14.3-4.6c6.4-0.5,11.7,2.7,14.4,8.6c1.9,4.2,2.7,8.6,2.7,13.1
		c0.1,7,0,14-0.1,20.9c0,0.5-0.2,1.1-0.3,1.6c-0.8,2.6-2.1,3.5-4.5,3.3c-2.2-0.2-3.8-1.7-4-4.1c-0.2-3.3-0.1-6.6-0.3-9.9
		c-0.3-5.4-0.8-10.8-1.2-16.2c0-0.1,0-0.1,0-0.2c-1.6-6.9-4.1-9.1-11.8-7.9c-3,0.5-5.8,2.1-8.6,3.3c-0.3,0.1-0.6,0.9-0.6,1.4
		c-0.2,9.2-0.4,18.3-0.7,27.5c0,1.5-0.4,3-0.6,4.5c-0.2,1.1-0.9,1.7-2,1.7c-0.2,0-0.4,0-0.6,0c-3.7,0.1-4.7-0.7-4.9-4.4
		c-0.3-4.8-0.6-9.6-0.7-14.4c-0.1-8.3-0.2-16.5-0.1-24.8c0-6.9,0.3-13.8,0.5-20.7c0.1-1.6,0.4-3.1,0.7-4.6c0.5-1.9,1.4-2.6,3.1-2.7
		c1.8-0.1,3.3,0.7,3.9,2.3c0.4,1.3,0.7,2.7,0.7,4c0.3,6.9,0.4,13.8,0.6,20.6C75.2,184.2,75.2,184.6,75.2,185.2z"/>
	<path fill="#FFFFFF" d="M144.3,203.5c0.1-6.8,2.8-13.8,9.8-18.6c5.5-3.8,11.6-4.7,18.1-4.1c5.7,0.6,10.7,2.7,14.4,7.2
		c3.2,3.8,4.7,8.3,5,13.2c0.5,6.4-0.5,12.5-4.1,17.8c-5.1,7.4-12.4,10.3-21.2,10c-8.6-0.3-15.2-4.2-19.2-11.9
		C145,213.4,144.3,209.3,144.3,203.5z M182.2,204.7c0-0.8-0.1-1.6-0.1-2.4c-0.6-7.9-5.5-12.7-13.2-12.8c-7.4-0.1-12.8,3.9-14.2,11.1
		c-0.6,3-0.6,6.2-0.1,9.2c0.8,4.8,3.3,8.7,8.3,10.1c5.3,1.5,10.4,1.2,14.7-2.8C181.2,213.8,182.1,209.4,182.2,204.7z"/>
	<path fill="#FFFFFF" d="M486,204c0,6.3-1.5,12.1-5.6,16.9c-5.2,6.2-12.1,8.5-20,8.2c-14.5-0.5-23.1-12.5-21.8-26.9
		c1.2-12.8,10.4-21.2,23.3-21.5c5.3-0.1,10.4,0.7,14.9,3.8c5.9,4,8.4,9.9,9,16.8C485.9,202.2,485.9,203.1,486,204z M448.3,205.6
		c0,0.6,0.1,1.5,0.1,2.4c0.6,6.7,4.7,11.4,10.9,12.4c7.5,1.3,13.9-2.3,16.1-9.2c1.3-4.2,1.4-8.5,0.1-12.7c-1.6-5.2-5.3-8.4-10.7-8.9
		c-6-0.5-11.2,1.1-14.4,6.7C448.8,199,448.3,202.1,448.3,205.6z"/>
	<path fill="#FFFFFF" d="M191.6,136c-0.2,1.9-0.4,3.8-0.6,5.6c-0.2,1.8-1.1,2.9-2.6,3.9c-4.9,3.1-10,5.7-15.9,6.4
		c-0.7,0.1-1.3,0.3-1.9,0.4c-1.9,0.4-3.3,1.3-4.6,2.9c-3.1,4-7.3,5.4-12.2,4.6c-0.6-0.1-1.3-0.3-1.8-0.6c-1.3-0.6-1.8-1.6-1.1-3
		c0.7-1.2,1.4-2.5,2.2-3.6c0.8-1.1,1.8-2.1,2.9-2.9c3.5-2.4,4.8-5.8,5.2-9.9c0.5-5.2,1.9-10.3,4.5-15c0.6-1.1,1.3-2,2.1-3
		c1.5-1.9,3.5-3.1,5.9-2.7c3.6,0.6,7.3,1.1,10.8,2.2c4,1.3,5.5,5,6.3,8.8C191.2,132.1,191.3,134.1,191.6,136z"/>
	<path fill="#086800" stroke="#033F00" stroke-miterlimit="10" d="M269.2,77.3c1.7,0.9,3.2,1.4,4.3,2.3c4.4,3.6,8.7,7.4,13.1,11.1
		c0.8,0.7,1.5,1.6,2.4,2.1c3.5,2.3,3.7,5.8,2.6,9.2c-1.5,4.3-3.3,8.6-5.3,12.7c-2.2,4.9-4.7,9.6-7,14.4c-0.4,0.9-1,1.4-2.1,1.4
		c-4.9-0.1-9.8-0.3-14.7-0.4c-1.2,0-1.2-0.6-0.7-1.5c3.6-6.8,5.7-14.1,6.9-21.7c1.4-8.9,1.7-17.8,0.8-26.8
		C269.4,79.5,269.3,78.7,269.2,77.3z"/>
	<path fill="#FFFFFF" d="M41.8,229.1c-6.6-0.5-12.6-2.3-17.2-7.3c-3.6-3.9-5-8.7-5.5-13.9c-0.5-6.8,0.6-13.2,4.8-18.7
		c5.1-6.6,12.1-9,20.2-8.8c4.4,0.1,8.8,0.8,12.6,3.3c1.9,1.3,2.5,2.9,1.9,4.8c-0.5,1.7-1.9,2.7-4.2,2.5c-2.3-0.2-4.6-1-7-1.3
		c-2.5-0.3-5.1-0.6-7.5-0.4c-5.4,0.4-8.7,3.7-10.2,8.7c-1.6,5.3-1.5,10.7,1,15.8c2.4,5.1,6.7,7.2,13,6.9c3.8-0.2,7.4-1.3,10.6-3.4
		c0.5-0.3,1-0.6,1.5-0.7c1.5-0.3,3.1-0.4,4.1,0.9c1.1,1.5,0.9,3.2,0.1,4.8c-1.3,2.4-3.6,3.7-6,4.6c-1.9,0.7-4,1.2-6,1.6
		C45.9,228.8,43.8,228.9,41.8,229.1z"/>
	<path fill="#FFFFFF" d="M331.7,143c-11.1-0.8-21.7-3.4-32.1-7.1c-3.1-1.1-6.2-2.1-9.3-3.2c-1-0.4-2.1-0.9-3-1.5
		c-3-1.9-2.5-3-1.4-5.3c2.4-4.8,4.4-9.8,6.5-14.7c0.3-0.6,0.4-1.3,0.7-1.8c0.7-1.3,1.9-1.4,2.8-0.2c0.1,0.2,0.2,0.3,0.3,0.5
		c2,5.5,6.3,9.1,10.7,12.5c7.3,5.7,15.4,10.2,23.5,14.8c1.6,0.9,3.3,1.8,4.8,2.8c0.5,0.3,1,1,0.9,1.4c-0.1,0.5-0.8,1-1.3,1.2
		C333.8,142.8,332.7,142.8,331.7,143z"/>
	<path fill="#FFFFFF" d="M126,187.3c1.8-1.6,3.5-3.2,5.2-4.6c2.6-2,5.6-2.8,8.8-2.6c2.3,0.2,3.8,1.2,4.3,3c0.6,2.2,0,4.7-2,5.8
		c-1.7,0.9-3.6,1.3-5.4,1.9c-2.5,0.9-5.1,1.5-7.4,2.6c-2.4,1.2-3.5,3.2-3.5,6.2c0.1,7.8-0.2,15.6-0.3,23.4c0,0.6-0.1,1.1-0.2,1.7
		c-0.8,3.9-2.5,4.5-6.1,3.8c-1.6-0.3-2.2-1.7-2.3-3.1c-0.4-3-0.8-6-0.9-9.1c-0.1-8.7-0.1-17.3,0-26c0-2.4,0.4-4.8,0.9-7.2
		c0.5-2.8,1.8-3.7,4.5-3.5c2.5,0.2,3.7,1.5,4,4.1C125.8,184.8,125.9,186,126,187.3z"/>
	<path fill="#FFFFFF" d="M412.1,193c-0.3,10.1-0.5,20.1-0.8,30.2c0,0.8-0.1,1.6-0.3,2.4c-0.5,2.3-1.4,3.1-3.4,3.2
		c-2.4,0.1-3.8-0.8-4.1-3.1c-0.4-2.8-0.6-5.7-0.6-8.6c-0.2-14-0.3-27.9-0.3-41.9c0-4.5,0.5-9,0.8-13.5c0.1-0.8,0.3-1.6,0.6-2.3
		c0.7-1.8,1.8-2.6,3.6-2.4c1.8,0.1,3.1,1.2,3.3,3c0.4,2.8,0.6,5.5,0.6,8.3c0.1,8.2,0,16.5,0,24.8C411.7,193,411.9,193,412.1,193z"/>
	<path fill="#FFFFFF" d="M431.1,194.8c-0.2,8.9-0.5,18.9-0.8,28.9c0,0.7-0.1,1.4-0.3,2.1c-0.6,2.4-1.4,3.1-3.8,3
		c-2.1,0-3.5-1-3.7-3.2c-0.4-2.8-0.5-5.6-0.5-8.5c-0.1-13.9-0.3-27.7-0.3-41.6c0-4.5,0.4-9,0.7-13.5c0.1-1,0.4-2,0.8-2.9
		c0.6-1.5,1.6-2.3,3.3-2.2c1.7,0.1,3,1,3.4,2.6c0.4,1.9,0.6,3.8,0.7,5.7C430.7,174.7,430.9,184.2,431.1,194.8z"/>
	<path fill="#FFFFFF" d="M391,204.1c-0.3,6.5-0.5,12.9-0.8,19.4c0,0.7-0.2,1.4-0.3,2.1c-0.5,2-1.4,2.8-3.2,2.9
		c-2.3,0.1-3.7-0.7-4.1-2.7c-0.5-2.3-0.7-4.7-0.8-7.1c-0.1-9.7-0.1-19.3,0-29c0-2.4,0.5-4.9,1.1-7.3c0.5-2.1,1.8-2.9,3.4-2.8
		c1.8,0.1,3.3,1.3,3.6,3.3c0.4,3,0.6,5.9,0.6,8.9c0.1,4.1,0,8.2,0,12.3C390.8,204.1,390.9,204.1,391,204.1z"/>
	<path fill="#FFFFFF" d="M267.8,153.5c-1.7-0.3-3.3-0.5-4.8-0.7c-0.5-0.1-1.1-0.1-1.6-0.3c-1.3-0.5-1.5-1.4-0.5-2.4
		c1.8-1.6,3.6-3.2,5.6-4.6c1.1-0.8,1.6-1.8,1.4-3.1c-0.2-1.6-0.6-3.2-1-4.7c-0.7-2.1,0-3.4,2.2-3.3c3,0.2,5.9,0.8,8.8,1.3
		c0.3,0.1,0.7,0.6,0.8,0.9c0.6,3,1.3,5.9,1.7,8.9c0.4,2.7-0.7,5.1-2.9,6.6c-2.3,1.7-4.8,3.2-7.3,4.5c-1.5,0.8-2.5,0.1-2.5-1.6
		C267.8,154.5,267.8,154.1,267.8,153.5z"/>
	<path fill="#FFFFFF" d="M171.8,115.9c-1.4-0.1-2.9-0.2-4.4-0.4c-1.3-0.2-2.4-0.8-3.2-2c-1.7-2.3-2.4-4.9-2.8-7.6
		c-0.2-1.6-0.7-3.1-1.2-4.6c-0.4-1.2-0.1-2,1.1-1.8c5.5,0.8,10.9,1.6,13.8,7.3c1,2,2.2,3.9,3.1,5.9c0.8,1.8,0.5,2.2-1.4,2.6
		C175.2,115.6,173.6,115.7,171.8,115.9z"/>
	<path fill="#FFFFFF" d="M198.7,156.1c-0.6,0.1-1.2,0.1-1.7,0.2c-0.7,0-1.5,0.3-2.1,0c-0.6-0.3-0.9-1-1.4-1.6c0.4-0.3,0.9-0.8,1.4-1
		c0.5-0.2,1.1-0.3,1.6-0.3c3.8-0.3,6.9-2,9.6-4.6c0.5-0.5,1.5-0.9,2.2-0.8c2.1,0.1,4.2,0.4,6.3,0.6c1,0.1,1.3,0.6,0.8,1.5
		c-0.9,1.9-1.8,3.8-2.6,5.8c-0.7,1.8-2.1,2.6-3.9,3c-3.4,0.9-6.7,1.9-10.1,2.7c-0.7,0.2-1.7,0-2.2-0.4c-0.3-0.3-0.1-1.4,0.2-2
		c0.5-1,1.3-1.8,2-2.7C198.9,156.3,198.8,156.2,198.7,156.1z"/>
	<path fill="#FFFFFF" d="M386,173.8c-3,0-5.5-2.6-5.5-5.7c0-2.9,2.6-5.4,5.6-5.4c3.1,0,6,2.8,5.9,5.7
		C392,171.3,389.2,173.8,386,173.8z"/>
	<path fill="none" d="M182.2,204.7c-0.1,4.7-1,9.1-4.7,12.4c-4.3,3.9-9.4,4.3-14.7,2.8c-5-1.4-7.5-5.3-8.3-10.1
		c-0.5-3-0.5-6.2,0.1-9.2c1.4-7.2,6.8-11.2,14.2-11.1c7.7,0.1,12.7,4.9,13.2,12.8C182.1,203.1,182.1,203.9,182.2,204.7z"/>
</g>
</svg>
